<svg xmlns="http://www.w3.org/2000/svg" viewBox="0 0 1440 320"><path fill="#4DB8B5" fill-opacity="1" d="M0,256L24,261.3C48,267,96,277,144,240C192,203,240,117,288,112C336,107,384,181,432,197.3C480,213,528,171,576,160C624,149,672,171,720,186.7C768,203,816,213,864,208C912,203,960,181,1008,160C1056,139,1104,117,1152,112C1200,107,1248,117,1296,133.3C1344,149,1392,171,1416,181.3L1440,192L1440,320L1416,320C1392,320,1344,320,1296,320C1248,320,1200,320,1152,320C1104,320,1056,320,1008,320C960,320,912,320,864,320C816,320,768,320,720,320C672,320,624,320,576,320C528,320,480,320,432,320C384,320,336,320,288,320C240,320,192,320,144,320C96,320,48,320,24,320L0,320Z"></path></svg>